<svg width="40" height="40" viewBox="0 0 40 40" fill="none" xmlns="http://www.w3.org/2000/svg">
<path d="M14.4998 22.5L12.9287 24.1769L19.9998 31.2481L27.0708 24.1769L25.9998 22.5L19.9998 28.5L14.4998 22.5Z" fill="white"/>
<path d="M14.5711 18.748L13 17.0711L20.0711 9.99994L27.1421 17.0711L26.0711 18.748L20.0711 12.748L14.5711 18.748Z" fill="white"/>
<path fill-rule="evenodd" clip-rule="evenodd" d="M38.3334 19.9998C38.3334 30.125 30.1252 38.3332 20.0001 38.3332C9.87486 38.3332 1.66675 30.125 1.66675 19.9998C1.66675 9.87462 9.87486 1.6665 20.0001 1.6665C30.1252 1.6665 38.3334 9.87462 38.3334 19.9998ZM36.0001 19.9998C36.0001 28.2842 28.2844 35.9999 20.0001 35.9999C11.7158 35.9999 4.00008 28.2842 4.00008 19.9998C4.00008 11.7156 11.7158 3.99988 20.0001 3.99988C28.2844 3.99988 36.0001 11.7156 36.0001 19.9998Z" fill="white"/>
</svg>
