<svg width="40" height="40" viewBox="0 0 40 40" fill="none" xmlns="http://www.w3.org/2000/svg">
<path d="M31.6943 11.9029C32.71 12.5024 33.3332 13.5941 33.3332 14.7735V30C33.3332 31.841 31.8408 33.3333 29.9998 33.3333H26.6665C24.8255 33.3333 23.3332 31.841 23.3332 30V23.3331C23.3332 21.4923 21.8408 19.9998 19.9998 19.9998C18.1588 19.9998 16.6665 21.4923 16.6665 23.3331V30C16.6665 31.841 15.1741 33.3333 13.3332 33.3333H9.99984C8.15889 33.3333 6.6665 31.841 6.6665 30V14.7735C6.6665 13.5941 7.28975 12.5024 8.30542 11.9029L18.3053 6.00014C19.3508 5.38309 20.6488 5.38309 21.6943 6.00014L31.6943 11.9029Z" fill="white"/>
</svg>
