<svg width="40" height="40" viewBox="0 0 40 40" fill="none" xmlns="http://www.w3.org/2000/svg">
<path fill-rule="evenodd" clip-rule="evenodd" d="M38.6667 20.3333C38.6667 30.4585 30.4585 38.6667 20.3333 38.6667C10.2081 38.6667 2 30.4585 2 20.3333C2 10.2081 10.2081 2 20.3333 2C30.4585 2 38.6667 10.2081 38.6667 20.3333ZM36.3333 20.3333C36.3333 28.6177 28.6177 36.3334 20.3333 36.3334C12.0491 36.3334 4.33333 28.6177 4.33333 20.3333C4.33333 12.0491 12.0491 4.33337 20.3333 4.33337C28.6177 4.33337 36.3333 12.0491 36.3333 20.3333Z" fill="white"/>
<path d="M14.6 16.875C14.5333 16.4417 14.5 16 14.5 15.55C14.5167 15.1 14.6 14.6583 14.75 14.225C14.9333 13.6583 15.2333 13.1583 15.65 12.725C16.0667 12.2917 16.5417 11.95 17.075 11.7C17.6417 11.4333 18.2167 11.25 18.8 11.15C19.4 11.0333 19.9833 11.0083 20.55 11.075C21.1333 11.1417 21.6917 11.2917 22.225 11.525C22.775 11.7417 23.2917 12.0583 23.775 12.475C24.2917 12.925 24.675 13.45 24.925 14.05C25.1917 14.6333 25.3333 15.2417 25.35 15.875C25.3833 16.5083 25.3083 17.1417 25.125 17.775C24.9583 18.3917 24.7 18.9667 24.35 19.5C24.35 19.5 24.3417 19.5167 24.325 19.55C24.0417 19.9333 23.7167 20.2833 23.35 20.6C22.9833 20.9 22.6417 21.225 22.325 21.575C21.9583 21.9583 21.7417 22.35 21.675 22.75C21.6083 23.1333 21.5417 23.5667 21.475 24.05C21.425 24.5167 21.3 24.925 21.1 25.275C20.9167 25.6083 20.5667 25.7667 20.05 25.75C19.7 25.7333 19.4333 25.625 19.25 25.425C19.0833 25.2083 18.9583 24.9583 18.875 24.675C18.8083 24.375 18.7833 24.0667 18.8 23.75C18.8167 23.4167 18.8417 23.125 18.875 22.875C18.975 22.2917 19.1583 21.7417 19.425 21.225C19.6917 20.6917 20.0167 20.1917 20.4 19.725C20.6167 19.475 20.8333 19.25 21.05 19.05C21.2667 18.8333 21.4667 18.6083 21.65 18.375C21.8333 18.1417 21.9917 17.8917 22.125 17.625C22.2583 17.3583 22.35 17.05 22.4 16.7C22.45 16.3833 22.425 16.0667 22.325 15.75C22.225 15.4167 22.075 15.125 21.875 14.875C21.675 14.6083 21.4333 14.3917 21.15 14.225C20.8667 14.0417 20.5583 13.9417 20.225 13.925C19.925 13.9083 19.6083 13.95 19.275 14.05C18.9417 14.1333 18.6333 14.275 18.35 14.475C18.0667 14.6583 17.8333 14.8833 17.65 15.15C17.4833 15.4167 17.4083 15.7167 17.425 16.05C17.4417 16.25 17.475 16.4583 17.525 16.675C17.5917 16.875 17.6333 17.075 17.65 17.275C17.6833 17.4583 17.675 17.6417 17.625 17.825C17.5917 18.0083 17.4833 18.1833 17.3 18.35C17 18.6333 16.7 18.775 16.4 18.775C16.1 18.7583 15.825 18.6583 15.575 18.475C15.325 18.2917 15.1083 18.0583 14.925 17.775C14.7583 17.475 14.65 17.175 14.6 16.875ZM21.8 29.35C21.8 29.8333 21.6167 30.2667 21.25 30.65C20.9 31.0167 20.4917 31.2 20.025 31.2C19.575 31.2 19.175 31.0167 18.825 30.65C18.475 30.25 18.3 29.8167 18.3 29.35C18.3 28.8333 18.475 28.4 18.825 28.05C19.175 27.6667 19.575 27.475 20.025 27.475C20.4917 27.475 20.9 27.6667 21.25 28.05C21.6167 28.4167 21.8 28.85 21.8 29.35Z" fill="white"/>
</svg>
