<svg width="664" height="278" viewBox="0 0 664 278" fill="none" xmlns="http://www.w3.org/2000/svg">
<path fill-rule="evenodd" clip-rule="evenodd" d="M375.793 28.447C375.795 28.4486 375.797 28.45 372.5 32.2093L375.797 28.45C377.873 30.2707 378.08 33.4297 376.259 35.5059C374.439 37.5814 371.282 37.7891 369.206 35.9706L369.205 35.9703L369.203 35.9686L369.202 35.9677L369.178 35.9465C369.154 35.9257 369.115 35.8918 369.06 35.8452C368.952 35.7521 368.783 35.6087 368.557 35.4201C368.105 35.0428 367.424 34.4848 366.538 33.7862C364.765 32.3878 362.173 30.4313 358.944 28.2332C352.461 23.8201 343.525 18.5152 333.552 14.7642C323.55 11.002 312.833 8.92679 302.63 10.5677C292.602 12.1804 282.653 17.4418 274.028 29.1712C270.014 34.6309 268.894 39.6185 269.55 44.3699C270.23 49.3012 272.907 54.5702 277.596 60.2423C287.056 71.6863 303.358 83.2113 321.78 95.137C326.213 98.0067 330.762 100.896 335.338 103.802C349.466 112.773 363.841 121.901 375.777 131.091C383.713 137.202 390.797 143.503 396.161 150.015C398.877 153.311 401.217 156.74 403 160.299V147.209C403 144.448 405.239 142.209 408 142.209C410.761 142.209 413 144.448 413 147.209V160.674C416.502 156.994 421.088 154.209 427.009 152.867C437.24 150.547 446.218 154.578 452.669 161.143C455.633 164.16 458.131 167.761 460.087 171.678C463.661 163.678 469.882 157.163 480.009 154.867C490.24 152.547 499.218 156.578 505.669 163.143C511.532 169.11 515.572 177.366 517.195 185.823C520.455 185.18 523.677 184.437 526.84 183.585C527.61 173.989 529.056 164.389 530.444 156.583C531.383 151.31 532.303 146.811 532.99 143.627C533.334 142.035 533.619 140.769 533.82 139.898C533.92 139.462 534 139.124 534.054 138.894C534.081 138.779 534.103 138.69 534.117 138.629L534.134 138.559L534.139 138.539L534.14 138.534C534.14 138.532 534.141 138.531 538.945 139.696L534.141 138.531C534.792 135.847 537.495 134.199 540.178 134.85C542.862 135.501 544.51 138.204 543.859 140.888L543.858 140.89L543.855 140.903L543.842 140.96L543.82 141.051L543.785 141.196C543.762 141.297 543.733 141.421 543.698 141.567C543.66 141.731 543.616 141.922 543.565 142.141C543.374 142.972 543.098 144.192 542.765 145.736C542.099 148.826 541.203 153.203 540.29 158.335C539.129 164.862 537.952 172.54 537.176 180.311C554.382 173.963 568.937 163.655 577.028 147.473C578.263 145.003 581.266 144.002 583.736 145.237C586.206 146.472 587.207 149.475 585.972 151.945C575.729 172.432 557.101 184.38 536.392 191.165C536.358 192.015 536.33 192.86 536.311 193.699C536.175 199.641 536.444 205.097 537.256 209.627C538.087 214.255 539.392 217.375 540.908 219.155C542.163 220.628 543.692 221.388 546.288 221.071C549.276 220.705 553.738 218.861 560.018 214.196C562.235 212.549 565.367 213.011 567.014 215.228C568.66 217.444 568.198 220.576 565.982 222.223C559.137 227.307 553.006 230.323 547.503 230.996C541.609 231.718 536.751 229.697 533.295 225.639C530.1 221.888 528.37 216.726 527.414 211.393C526.469 206.126 526.186 200.151 526.302 194.043C523.539 194.722 520.758 195.323 517.973 195.854C517.729 202.847 515.868 209.758 512.482 215.585C507.787 223.667 499.991 229.866 489.524 230.726C478.249 231.652 469.34 225.638 463.697 217.4C462.487 215.633 461.409 213.744 460.472 211.766C460.158 212.383 459.828 212.99 459.482 213.585C454.787 221.667 446.991 227.866 436.524 228.726C426.679 229.535 418.638 225.052 413 218.418V272.709C413 275.471 410.761 277.709 408 277.709C405.239 277.709 403 275.471 403 272.709V198.491C402.106 200.37 401.076 202.15 399.92 203.835C394.21 212.158 385.777 217.663 376.911 221.33C359.305 228.611 338.566 229.209 329 229.209C326.239 229.209 324 226.971 324 224.209C324 221.448 326.239 219.209 329 219.209C338.434 219.209 357.445 218.558 373.089 212.089C380.848 208.88 387.415 204.386 391.674 198.178C395.859 192.077 398.149 183.839 396.548 172.403C395.849 167.404 393.146 162.082 388.443 156.373C383.754 150.681 377.326 144.904 369.676 139.015C358.133 130.127 344.321 121.355 330.293 112.446L330.293 112.446L330.292 112.446L330.287 112.442C325.638 109.49 320.966 106.523 316.345 103.532C298.08 91.7073 280.475 79.4198 269.888 66.6138C264.554 60.1609 260.672 53.1955 259.644 45.7362C258.59 38.0969 260.611 30.5377 265.972 23.2473C276.097 9.47669 288.335 2.73811 301.042 0.694566C313.573 -1.32077 326.138 1.29148 337.073 5.40435C348.037 9.52832 357.695 15.286 364.571 19.9666C368.022 22.3154 370.802 24.4136 372.729 25.9332C373.694 26.6935 374.447 27.3104 374.965 27.7431C375.224 27.9595 375.425 28.13 375.565 28.2495C375.634 28.3092 375.689 28.3562 375.728 28.3898L375.774 28.4302L375.788 28.4427L375.793 28.447ZM507.327 187.465C506.008 180.833 502.826 174.517 498.537 170.152C493.899 165.433 488.296 163.242 482.22 164.619C472.076 166.919 467.094 176.157 466.1 189.125L466.093 189.219C474.112 189.522 482.895 189.524 491.944 188.969C497.063 188.654 502.216 188.166 507.327 187.465ZM466.774 199.25C474.791 199.525 483.534 199.504 492.556 198.95C497.552 198.643 502.681 198.17 507.855 197.482C507.422 202.223 506.038 206.771 503.836 210.562C500.448 216.393 495.297 220.218 488.705 220.76C481.92 221.317 476.136 217.865 471.947 211.749C469.494 208.168 467.718 203.82 466.774 199.25ZM454.804 188.579C452.095 188.375 449.531 188.146 447.14 187.906C441.243 187.314 436.417 186.657 433.076 186.151C431.406 185.897 430.109 185.682 429.235 185.531C428.981 185.487 428.762 185.448 428.581 185.416C428.452 185.393 428.341 185.373 428.251 185.356C428.142 185.336 428.061 185.321 428.009 185.312L427.954 185.301L427.942 185.299L427.942 185.299L427.942 185.299L427.941 185.299C425.229 184.779 422.61 186.556 422.09 189.267C421.569 191.979 423.346 194.599 426.058 195.12L427 190.209C426.058 195.12 426.06 195.12 426.062 195.121L426.069 195.122L426.091 195.126L426.168 195.141L426.308 195.167L426.454 195.193C426.702 195.239 427.063 195.303 427.532 195.384C428.468 195.546 429.834 195.773 431.576 196.038C435.06 196.566 440.054 197.245 446.141 197.856C448.716 198.115 451.491 198.361 454.432 198.579C453.773 202.189 452.553 205.606 450.836 208.562C447.448 214.393 442.297 218.218 435.705 218.76C428.92 219.317 423.136 215.865 418.947 209.749C415.189 204.262 413.019 196.977 413 189.851L413 189.735L413 189.662C413.002 188.813 413.035 187.966 413.1 187.125C414.094 174.157 419.076 164.919 429.22 162.619C435.296 161.242 440.899 163.433 445.537 168.152C450.251 172.95 453.628 180.103 454.663 187.442C454.717 187.82 454.764 188.2 454.804 188.579ZM121.731 31.5861C121.057 29.6214 119.193 28.2093 117 28.2093C114.239 28.2093 112 30.4479 112 33.2093V105.291C102.161 104.881 93.2226 106.066 85.4354 108.015C75.3605 110.537 67.2779 114.319 61.6975 117.48C61.4748 117.606 61.256 117.731 61.0412 117.856C64.0774 93.4272 60.1951 65.9584 45.1832 35.971C43.947 33.5018 40.9431 32.5021 38.4739 33.7382C36.0046 34.9744 35.0049 37.9783 36.2411 40.4475C55.2097 78.3386 55.1064 111.32 46.1624 138.722C37.165 166.287 19.0948 188.56 1.62755 204.518C-0.411164 206.38 -0.553973 209.543 1.30858 211.582C3.17113 213.62 6.33373 213.763 8.37245 211.901C26.6173 195.232 45.9598 171.571 55.6688 141.825C56.8638 138.164 57.911 134.416 58.7917 130.583C59.1868 131.062 59.1859 131.063 59.185 131.064L59.1878 131.061C59.1985 131.053 59.2201 131.035 59.2526 131.009C59.3176 130.957 59.4258 130.872 59.5764 130.757C59.8777 130.525 60.3478 130.174 60.979 129.731C62.2421 128.842 64.1454 127.586 66.6267 126.181C71.596 123.366 78.8382 119.975 87.8637 117.716C94.8663 115.963 102.983 114.878 112 115.299V227.209C112 229.971 114.239 232.209 117 232.209C119.761 232.209 122 229.971 122 227.209V116.366C133.579 118.294 146.347 122.832 159.932 131.434C178.775 143.364 195.19 148.235 209 149.075V231.209C209 233.971 211.239 236.209 214 236.209C216.761 236.209 219 233.971 219 231.209V148.986C224.087 148.575 228.733 147.622 232.927 146.332C241.367 143.737 247.768 139.84 252.079 136.573C254.237 134.938 255.88 133.452 257.005 132.352C257.567 131.801 258.002 131.345 258.307 131.014C258.459 130.848 258.58 130.713 258.668 130.612C258.712 130.562 258.748 130.52 258.776 130.487L258.812 130.445L258.825 130.429L258.831 130.422C258.833 130.419 258.836 130.417 255 127.209L258.836 130.417C260.607 128.298 260.326 125.145 258.207 123.373C256.094 121.607 252.951 121.882 251.177 123.986L218.825 100.893L218.825 100.893C218.247 98.7702 216.306 97.2093 214 97.2093C213.892 97.2093 213.785 97.2127 213.679 97.2195L121.731 31.5861ZM121.731 31.5861L213.678 97.2195C211.067 97.3853 209 99.5559 209 102.209V139.053C197.062 138.215 182.484 133.877 165.282 122.985C149.867 113.225 135.267 108.216 122 106.242V33.2093C122 32.6411 121.905 32.095 121.731 31.5861ZM218.825 100.893L251.177 123.987C251.174 123.99 251.163 124.003 251.145 124.024C251.108 124.066 251.042 124.141 250.945 124.245C250.752 124.455 250.441 124.784 250.011 125.204C249.15 126.046 247.823 127.251 246.038 128.604C242.465 131.312 237.096 134.588 229.988 136.774C226.735 137.774 223.072 138.561 219 138.947V102.209C219 101.754 218.939 101.313 218.825 100.893ZM168 227.209V150.209C168 147.448 165.761 145.209 163 145.209C160.239 145.209 158 147.448 158 150.209V227.209C158 229.971 160.239 232.209 163 232.209C165.761 232.209 168 229.971 168 227.209ZM251.429 222.638H247.143H242.857V218.352V214.066V209.781H247.143H251.429V205.495V201.209H247.143H242.857V196.924V192.638V188.352H238.571V192.638H234.286V196.924V201.209H230V205.495V209.781H234.286V214.066V218.352V222.638V226.924H238.571V231.209H242.857H247.143H251.429V226.924V222.638ZM255.703 201.209V205.495V209.781V214.066V218.352V222.638V226.924V231.209H259.989H264.275V226.924V222.638V218.352V214.066V209.781V205.495H268.56H272.846H277.132V209.781V214.066V218.352V222.638V226.924V231.209H281.417H285.703V226.924V222.638V218.352V214.066V209.781V205.495V201.209H281.417V196.924H277.132H272.846H268.56V201.209H264.275V196.924V192.638V188.352H259.989H255.703V192.638V196.924V201.209ZM302.857 196.924H298.571H294.286V201.209H290V205.495V209.781V214.066V218.352V222.638V226.924H294.286V231.209H298.571H302.857H307.143H311.429H315.714V226.924H320V222.638H315.714H311.429H307.143H302.857H298.571V218.352H302.857H307.143H311.429H315.714H320V214.066V209.781V205.495V201.209H315.714V196.924H311.429H307.143H302.857ZM298.571 205.495H302.857H307.143H311.429V209.781H307.143H302.857H298.571V205.495ZM593.19 197.422C596.821 196.699 600.097 197.876 602.714 200.215C605.378 202.596 607.246 206.107 607.815 209.649C608.999 217.017 604.607 224.38 597.004 224.928C592.948 225.221 589.624 223.395 587.302 220.417C584.933 217.38 583.721 213.258 584.055 209.434C584.328 206.303 585.168 203.576 586.612 201.527C588.008 199.547 590.071 198.043 593.19 197.422ZM613.739 208.697C612.96 203.851 610.445 199.078 606.712 195.741C602.932 192.363 597.796 190.387 592.019 191.537C587.398 192.458 583.995 194.825 581.708 198.07C579.47 201.245 578.411 205.094 578.077 208.912C577.612 214.243 579.266 219.87 582.57 224.107C585.919 228.401 591.073 231.372 597.436 230.913C609.517 230.041 615.316 218.506 613.739 208.697ZM658.5 38.7084C663.488 38.3604 663.488 38.3589 663.488 38.3572L663.487 38.3525L663.486 38.3388L663.483 38.2939C663.48 38.2563 663.476 38.2034 663.471 38.1361C663.461 38.0014 663.445 37.8085 663.424 37.5629C663.381 37.0718 663.315 36.3689 663.221 35.4984C663.034 33.7603 662.733 31.3389 662.276 28.5919C661.382 23.2129 659.824 16.139 657.131 10.541C655.79 7.75345 653.976 4.91718 651.459 2.91263C648.761 0.763321 645.307 -0.358871 641.4 0.495763C637.779 1.28783 634.388 3.64684 631.157 7.01467C627.881 10.4302 624.409 15.2608 620.675 21.6998C605.615 47.6643 598.29 86.1971 594.658 117.635C592.829 133.467 591.915 147.713 591.458 158.002C591.23 163.149 591.115 167.311 591.058 170.193C591.029 171.634 591.015 172.755 591.007 173.52C591.004 173.903 591.002 174.196 591.001 174.395L591.001 174.508L591 174.624L591 174.684V174.701V174.706C591 174.707 591 174.708 596 174.708H591L600.543 176.796L663.043 40.7963L663.577 39.6351L663.488 38.3604L658.5 38.7084ZM653.406 37.8198L601.891 149.915C602.419 141.029 603.258 130.33 604.592 118.782C608.21 87.4696 615.385 50.7524 629.325 26.717C632.841 20.6559 635.853 16.5647 638.374 13.9373C640.94 11.2621 642.658 10.4571 643.537 10.2648C644.13 10.135 644.568 10.2081 645.229 10.7346C646.071 11.4058 647.085 12.7258 648.119 14.8757C650.176 19.1528 651.555 25.0788 652.411 30.2311C652.83 32.7497 653.107 34.9768 653.279 36.5707C653.33 37.0484 653.372 37.4679 653.406 37.8198Z" fill="#3C3C3C"/>
</svg>
