<svg width="35" height="35" viewBox="0 0 35 35" fill="none" xmlns="http://www.w3.org/2000/svg">
<path d="M5.8335 10.2083C5.8335 9.40292 6.48642 8.75 7.29183 8.75H27.7085C28.5139 8.75 29.1668 9.40292 29.1668 10.2083C29.1668 11.0137 28.5139 11.6667 27.7085 11.6667H7.29183C6.48642 11.6667 5.8335 11.0137 5.8335 10.2083ZM5.8335 17.5C5.8335 16.6946 6.48642 16.0417 7.29183 16.0417H27.7085C28.5139 16.0417 29.1668 16.6946 29.1668 17.5C29.1668 18.3054 28.5139 18.9583 27.7085 18.9583H7.29183C6.48642 18.9583 5.8335 18.3054 5.8335 17.5ZM5.8335 24.7917C5.8335 23.9862 6.48642 23.3333 7.29183 23.3333H27.7085C28.5139 23.3333 29.1668 23.9862 29.1668 24.7917C29.1668 25.5971 28.5139 26.25 27.7085 26.25H7.29183C6.48642 26.25 5.8335 25.5971 5.8335 24.7917Z" fill="white"/>
</svg>
