<svg width="40" height="40" viewBox="0 0 40 40" fill="none" xmlns="http://www.w3.org/2000/svg">
<path fill-rule="evenodd" clip-rule="evenodd" d="M38.6667 20.3333C38.6667 30.4585 30.4585 38.6667 20.3333 38.6667C10.2081 38.6667 2 30.4585 2 20.3333C2 10.2081 10.2081 2 20.3333 2C30.4585 2 38.6667 10.2081 38.6667 20.3333ZM36.3333 20.3333C36.3333 28.6177 28.6177 36.3334 20.3333 36.3334C12.0491 36.3334 4.33333 28.6177 4.33333 20.3333C4.33333 12.0491 12.0491 4.33337 20.3333 4.33337C28.6177 4.33337 36.3333 12.0491 36.3333 20.3333Z" fill="white"/>
<path d="M25.825 13.875C26.4583 14.4583 26.925 15.1583 27.225 15.975C27.525 16.775 27.6417 17.575 27.575 18.375C27.5083 19.1417 27.2667 19.85 26.85 20.5C26.4333 21.1333 25.8 21.6167 24.95 21.95C24.2833 22.2333 23.625 22.4333 22.975 22.55C22.325 22.6667 21.6083 22.7583 20.825 22.825C20.475 22.8583 20.175 22.8833 19.925 22.9C19.6917 22.9 19.4167 22.9083 19.1 22.925C19.0333 22.925 18.9167 22.925 18.75 22.925C18.6 22.925 18.4917 22.9333 18.425 22.95V28.125C18.375 28.4417 18.3083 28.7667 18.225 29.1C18.1583 29.4333 17.9667 29.6917 17.65 29.875C17.4667 29.975 17.2417 30.0333 16.975 30.05C16.7083 30.0667 16.4667 30.0583 16.25 30.025C16.0167 29.9917 15.8167 29.9333 15.65 29.85C15.5 29.75 15.375 29.5833 15.275 29.35C15.2083 29.2 15.1417 29.0333 15.075 28.85C15.025 28.65 15 28.4083 15 28.125V14.3C15 14.1833 15.0083 14.075 15.025 13.975C15.0417 13.875 15.0583 13.775 15.075 13.675C15.1083 13.5917 15.1333 13.5 15.15 13.4C15.1667 13.3 15.1917 13.2083 15.225 13.125C15.2583 13.0417 15.2917 12.9667 15.325 12.9C15.375 12.8333 15.4333 12.775 15.5 12.725C15.5833 12.6417 15.7083 12.5667 15.875 12.5C16.0583 12.4333 16.325 12.4 16.675 12.4H16.725C17.2417 12.3667 17.8167 12.3417 18.45 12.325C19.0833 12.2917 19.6083 12.3 20.025 12.35C20.2583 12.3833 20.475 12.4083 20.675 12.425C20.875 12.425 21.0667 12.4333 21.25 12.45C21.45 12.4667 21.65 12.4833 21.85 12.5C22.05 12.5167 22.25 12.5417 22.45 12.575C22.6167 12.6083 22.7667 12.6333 22.9 12.65C23.05 12.6667 23.2 12.6917 23.35 12.725C23.4833 12.7583 23.625 12.7917 23.775 12.825C23.9417 12.8583 24.0917 12.9167 24.225 13C24.575 13.1 24.8667 13.225 25.1 13.375C25.3333 13.525 25.575 13.6917 25.825 13.875ZM24.325 18C24.3417 17.6 24.2583 17.25 24.075 16.95C23.9083 16.65 23.6667 16.4 23.35 16.2C23.0333 16 22.675 15.8417 22.275 15.725C21.875 15.6083 21.475 15.525 21.075 15.475C20.975 15.475 20.8333 15.475 20.65 15.475C20.4833 15.4583 20.3 15.45 20.1 15.45C19.9 15.4333 19.7083 15.425 19.525 15.425C19.3583 15.4083 19.225 15.4 19.125 15.4C19.0417 15.3833 18.9417 15.375 18.825 15.375C18.7083 15.375 18.575 15.375 18.425 15.375C18.4417 15.8917 18.45 16.3917 18.45 16.875C18.45 17.3417 18.45 17.85 18.45 18.4C18.4333 18.7 18.425 19 18.425 19.3C18.425 19.6 18.425 19.8917 18.425 20.175L19.975 20.15C20.375 20.15 20.8167 20.125 21.3 20.075C21.7833 20.025 22.2417 19.925 22.675 19.775C23.1083 19.625 23.475 19.4083 23.775 19.125C24.0917 18.8417 24.275 18.4667 24.325 18Z" fill="white"/>
</svg>
