<svg width="36" height="36" viewBox="0 0 36 36" fill="none" xmlns="http://www.w3.org/2000/svg">
<path d="M13.05 20.25L11.636 21.7593L18 28.1233L24.3639 21.7593L23.4 20.25L18 25.65L13.05 20.25Z" fill="#444B54"/>
<path d="M13.114 16.8734L11.7 15.3641L18.064 9.00005L24.4279 15.3641L23.464 16.8734L18.064 11.4734L13.114 16.8734Z" fill="#444B54"/>
<path fill-rule="evenodd" clip-rule="evenodd" d="M34.5 18C34.5 27.1127 27.1127 34.5 18 34.5C8.88731 34.5 1.5 27.1127 1.5 18C1.5 8.88731 8.88731 1.5 18 1.5C27.1127 1.5 34.5 8.88731 34.5 18ZM32.4 18C32.4 25.4559 25.4559 32.4 18 32.4C10.5442 32.4 3.6 25.4559 3.6 18C3.6 10.5442 10.5442 3.60004 18 3.60004C25.4559 3.60004 32.4 10.5442 32.4 18Z" fill="#444B54"/>
</svg>
