<svg width="231" height="97" viewBox="0 0 231 97" fill="none" xmlns="http://www.w3.org/2000/svg">
<path fill-rule="evenodd" clip-rule="evenodd" d="M130.819 9.93621C130.819 9.93621 130.82 9.93726 129.672 11.2503L130.82 9.93726C131.543 10.5732 131.615 11.6766 130.981 12.4018C130.347 13.1267 129.248 13.1993 128.526 12.5641L128.524 12.5634L128.516 12.5557C128.507 12.5484 128.494 12.5366 128.475 12.5203C128.437 12.4878 128.378 12.4377 128.3 12.3718C128.142 12.24 127.905 12.0451 127.597 11.8011C126.98 11.3127 126.077 10.6293 124.953 9.86153C122.696 8.3201 119.586 6.46717 116.114 5.157C112.632 3.84291 108.901 3.11807 105.35 3.69122C101.859 4.25451 98.3953 6.09225 95.3928 10.1892C93.9955 12.0962 93.6056 13.8383 93.8339 15.4979C94.0707 17.2203 95.0026 19.0607 96.6349 21.0419C99.928 25.0391 105.603 29.0646 112.016 33.2301C113.559 34.2325 115.143 35.2416 116.736 36.2567C121.654 39.3901 126.658 42.5784 130.813 45.7883C133.576 47.9228 136.042 50.1237 137.909 52.3982C138.854 53.5495 139.669 54.7472 140.29 55.9903V51.4181C140.29 50.4538 141.069 49.6717 142.03 49.6717C142.991 49.6717 143.771 50.4538 143.771 51.4181V56.1213C144.99 54.8359 146.586 53.8631 148.648 53.3944C152.209 52.5841 155.334 53.992 157.58 56.2851C158.612 57.3389 159.481 58.5967 160.162 59.9648C161.407 57.1705 163.572 54.8949 167.098 54.093C170.659 53.2826 173.784 54.6906 176.03 56.9837C178.071 59.0679 179.477 61.9516 180.042 64.9055C181.177 64.6809 182.299 64.4214 183.4 64.1238C183.668 60.772 184.171 57.4189 184.655 54.6923C184.981 52.8506 185.302 51.2791 185.541 50.167C185.661 49.6109 185.76 49.1687 185.83 48.8645C185.865 48.7122 185.893 48.5942 185.911 48.5138C185.921 48.4737 185.928 48.4426 185.933 48.4213L185.939 48.3968L185.941 48.3898L185.941 48.3881C185.941 48.3881 185.942 48.387 187.614 48.794L185.942 48.387C186.168 47.4496 187.109 46.8739 188.043 47.1013C188.977 47.3287 189.551 48.2728 189.325 49.2103L189.323 49.2155L189.319 49.2355L189.311 49.2672L189.299 49.3179C189.291 49.3532 189.281 49.3965 189.269 49.4475C189.255 49.5047 189.24 49.5715 189.222 49.648C189.156 49.9382 189.06 50.3643 188.944 50.9036C188.712 51.9829 188.4 53.5118 188.082 55.3043C187.678 57.5841 187.268 60.2659 186.998 62.9802C192.988 60.7629 198.055 57.1625 200.871 51.5104C201.301 50.6476 202.346 50.298 203.206 50.7293C204.066 51.1607 204.415 52.2096 203.985 53.0724C200.419 60.2282 193.934 64.4015 186.725 66.7714C186.713 67.0683 186.704 67.3634 186.697 67.6565C186.65 69.7319 186.743 71.6376 187.026 73.2199C187.315 74.8364 187.77 75.9262 188.297 76.5479C188.734 77.0624 189.266 77.3278 190.17 77.2171C191.21 77.0893 192.764 76.4452 194.95 74.8158C195.721 74.2405 196.812 74.4019 197.385 75.1762C197.958 75.9503 197.797 77.0442 197.026 77.6195C194.643 79.3953 192.509 80.4487 190.593 80.6838C188.541 80.936 186.85 80.2301 185.647 78.8127C184.535 77.5025 183.933 75.6995 183.6 73.8367C183.271 71.997 183.172 69.91 183.213 67.7766C182.251 68.0138 181.283 68.2237 180.313 68.4092C180.228 70.8517 179.581 73.2656 178.402 75.3009C176.767 78.1239 174.054 80.2891 170.41 80.5895C166.485 80.9129 163.383 78.8123 161.419 75.9349C160.998 75.3177 160.623 74.6579 160.296 73.967C160.187 74.1825 160.072 74.3945 159.952 74.6024C158.317 77.4253 155.604 79.5905 151.96 79.8909C148.533 80.1735 145.733 78.6076 143.771 76.2905V95.2536C143.771 96.2183 142.991 97 142.03 97C141.069 97 140.29 96.2183 140.29 95.2536V69.3302C139.978 69.9865 139.62 70.6083 139.217 71.1968C137.23 74.1039 134.294 76.0268 131.208 77.3076C125.079 79.8507 117.859 80.0596 114.529 80.0596C113.568 80.0596 112.789 79.2779 112.789 78.3132C112.789 77.3488 113.568 76.5667 114.529 76.5667C117.813 76.5667 124.431 76.3394 129.877 74.0798C132.578 72.959 134.864 71.3893 136.347 69.2209C137.804 67.0899 138.601 64.2125 138.044 60.2181C137.8 58.472 136.859 56.6131 135.222 54.619C133.59 52.6309 131.352 50.613 128.689 48.5561C124.671 45.4516 119.863 42.3877 114.979 39.2759L114.977 39.2745C113.359 38.2434 111.733 37.2071 110.124 36.1624C103.766 32.0322 97.6371 27.7403 93.9516 23.2673C92.0948 21.0134 90.7434 18.5805 90.3855 15.9751C90.0186 13.3068 90.7222 10.6665 92.5884 8.12003C96.113 3.31014 100.373 0.956449 104.797 0.242667C109.159 -0.461262 113.533 0.451161 117.34 1.88773C121.156 3.32818 124.518 5.33925 126.912 6.97412C128.113 7.79453 129.081 8.5274 129.752 9.05817C130.088 9.32374 130.35 9.53921 130.53 9.69035C130.62 9.76593 130.69 9.82549 130.739 9.86723C130.763 9.88808 130.782 9.90449 130.796 9.91623L130.812 9.93034L130.817 9.93471L130.819 9.93621ZM176.607 65.479C176.148 63.1625 175.04 60.9564 173.547 59.4318C171.933 57.7835 169.982 57.0182 167.867 57.4992C164.336 58.3026 162.602 61.5293 162.256 66.0588L162.253 66.0917C165.045 66.1975 168.102 66.1982 171.252 66.0043C173.034 65.8943 174.828 65.7239 176.607 65.479ZM162.49 69.5953C165.281 69.6914 168.325 69.6841 171.465 69.4906C173.204 69.3833 174.99 69.2181 176.791 68.9778C176.64 70.6338 176.159 72.2223 175.392 73.5465C174.213 75.5832 172.419 76.9192 170.125 77.1085C167.763 77.303 165.749 76.0973 164.291 73.9611C163.437 72.7103 162.819 71.1916 162.49 69.5953ZM158.323 65.8681C157.38 65.7969 156.488 65.7169 155.655 65.633C153.603 65.4263 151.923 65.1968 150.76 65.02C150.178 64.9313 149.727 64.8562 149.422 64.8035C149.334 64.7881 149.258 64.7745 149.195 64.7633C149.15 64.7553 149.111 64.7483 149.08 64.7424C149.042 64.7354 149.014 64.7301 148.996 64.727L148.976 64.7232L148.972 64.7225C148.028 64.5408 147.116 65.1615 146.935 66.1084C146.754 67.0557 147.372 67.9708 148.316 68.1528L148.644 66.4374C148.316 68.1528 148.318 68.1531 148.318 68.1531L148.32 68.1535L148.328 68.1549L148.355 68.1601L148.403 68.1692L148.454 68.1783C148.541 68.1944 148.666 68.2167 148.83 68.245C149.155 68.3016 149.631 68.3809 150.237 68.4734C151.45 68.6579 153.189 68.895 155.308 69.1084C156.204 69.1989 157.17 69.2848 158.194 69.361C157.964 70.6219 157.54 71.8154 156.942 72.8479C155.763 74.8846 153.969 76.2206 151.675 76.4099C149.313 76.6045 147.299 75.3987 145.841 73.2625C144.533 71.346 143.777 68.8014 143.771 66.3124V66.2719V66.2464C143.771 65.9498 143.783 65.654 143.806 65.3603C144.152 60.8307 145.886 57.604 149.417 56.8006C151.532 56.3197 153.483 57.085 155.097 58.7332C156.738 60.4091 157.914 62.9076 158.274 65.471C158.293 65.603 158.309 65.7357 158.323 65.8681ZM42.3762 11.0327C42.1416 10.3464 41.4927 9.85318 40.7293 9.85318C39.7681 9.85318 38.9887 10.6351 38.9887 11.5996V36.7768C35.5636 36.6336 32.452 37.0475 29.7412 37.7282C26.234 38.6091 23.4203 39.9301 21.4777 41.0342C21.4002 41.0782 21.324 41.1219 21.2493 41.1655C22.3062 32.6329 20.9547 23.0384 15.7289 12.5642C15.2985 11.7018 14.2528 11.3526 13.3933 11.7844C12.5337 12.2161 12.1857 13.2654 12.616 14.1278C19.2192 27.3627 19.1833 38.8826 16.0698 48.4537C12.9376 58.0818 6.64716 65.8615 0.566583 71.4354C-0.143121 72.0858 -0.192834 73.1905 0.455545 73.9027C1.10392 74.6146 2.20487 74.6645 2.91457 74.0142C9.26585 68.1919 15.9992 59.9275 19.3791 49.5376C19.7951 48.2588 20.1596 46.9497 20.4662 45.6109C20.6037 45.7782 20.6031 45.7789 20.6031 45.7789L20.6041 45.7779C20.6078 45.7751 20.6153 45.7688 20.6266 45.7597C20.6493 45.7415 20.6869 45.7119 20.7393 45.6717C20.8442 45.5906 21.0079 45.4681 21.2276 45.3133C21.6673 45.0028 22.3299 44.5641 23.1936 44.0733C24.9235 43.0901 27.4446 41.9057 30.5865 41.1166C33.0242 40.5043 35.8498 40.1254 38.9887 40.2724V79.361C38.9887 80.3258 39.7681 81.1075 40.7293 81.1075C41.6904 81.1075 42.4698 80.3258 42.4698 79.361V40.6451C46.5006 41.3185 50.9453 42.9036 55.6745 45.9082C62.234 50.0751 67.9482 51.7765 72.7557 52.0699V80.7582C72.7557 81.7229 73.5351 82.5046 74.4962 82.5046C75.4574 82.5046 76.2368 81.7229 76.2368 80.7582V52.0388C78.0077 51.8953 79.625 51.5624 81.085 51.1118C84.0231 50.2054 86.2513 48.8442 87.7521 47.7031C88.5033 47.132 89.0752 46.613 89.4669 46.2288C89.6625 46.0363 89.8139 45.8771 89.9201 45.7615C89.973 45.7035 90.0151 45.6563 90.0458 45.621C90.0611 45.6036 90.0736 45.5889 90.0834 45.5774L90.0959 45.5627L90.1004 45.5571L90.1025 45.5547C90.1025 45.5547 90.1043 45.5529 88.7689 44.4324L90.1043 45.5529C90.7208 44.8128 90.6229 43.7115 89.8853 43.0926C89.1497 42.4757 88.0556 42.5718 87.4381 43.3067L76.1759 35.2406C75.9747 34.4991 75.299 33.9539 74.4962 33.9539C74.4587 33.9539 74.4214 33.9551 74.3845 33.9575L42.3762 11.0327ZM42.3762 11.0327L74.3845 33.9575C73.4756 34.0154 72.7557 34.7736 72.7557 35.7003V48.5694C68.5999 48.2767 63.5251 46.7615 57.5369 42.957C52.1707 39.548 47.0882 37.7984 42.4698 37.1089V11.5996C42.4698 11.4012 42.4368 11.2104 42.3762 11.0327ZM76.1759 35.2406L87.4381 43.3067C87.4381 43.3067 87.4332 43.3126 87.4269 43.3199C87.414 43.3346 87.3911 43.3608 87.3573 43.3971C87.2901 43.4705 87.1818 43.5854 87.0322 43.7321C86.7324 44.0262 86.2705 44.4471 85.6491 44.9197C84.4053 45.8655 82.5363 47.0098 80.0619 47.7733C78.9295 48.1226 77.6543 48.3975 76.2368 48.5323V35.7003C76.2368 35.5413 76.2156 35.3873 76.1759 35.2406ZM58.483 79.361V52.466C58.483 51.5016 57.7036 50.7196 56.7425 50.7196C55.7813 50.7196 55.0019 51.5016 55.0019 52.466V79.361C55.0019 80.3258 55.7813 81.1075 56.7425 81.1075C57.7036 81.1075 58.483 80.3258 58.483 79.361ZM87.5258 77.7645H86.0338H84.5418V76.2674V74.7704V73.2737H86.0338H87.5258V71.7766V70.2796H86.0338H84.5418V68.7829V67.2859V65.7888H83.0497V67.2859H81.5581V68.7829V70.2796H80.0661V71.7766V73.2737H81.5581V74.7704V76.2674V77.7645V79.2615H83.0497V80.7582H84.5418H86.0338H87.5258V79.2615V77.7645ZM89.0136 70.2796V71.7766V73.2737V74.7704V76.2674V77.7645V79.2615V80.7582H90.5056H91.9976V79.2615V77.7645V76.2674V74.7704V73.2737V71.7766H93.4893H94.9813H96.4733V73.2737V74.7704V76.2674V77.7645V79.2615V80.7582H97.965H99.457V79.2615V77.7645V76.2674V74.7704V73.2737V71.7766V70.2796H97.965V68.7829H96.4733H94.9813H93.4893V70.2796H91.9976V68.7829V67.2859V65.7888H90.5056H89.0136V67.2859V68.7829V70.2796ZM105.429 68.7829H103.937H102.445V70.2796H100.953V71.7766V73.2737V74.7704V76.2674V77.7645V79.2615H102.445V80.7582H103.937H105.429H106.921H108.413H109.904V79.2615H111.396V77.7645H109.904H108.413H106.921H105.429H103.937V76.2674H105.429H106.921H108.413H109.904H111.396V74.7704V73.2737V71.7766V70.2796H109.904V68.7829H108.413H106.921H105.429ZM103.937 71.7766H105.429H106.921H108.413V73.2737H106.921H105.429H103.937V71.7766ZM206.497 68.9568C207.761 68.7043 208.902 69.1154 209.813 69.9324C210.74 70.7641 211.39 71.9904 211.588 73.2276C212.001 75.8011 210.472 78.3729 207.825 78.5643C206.413 78.6667 205.256 78.0289 204.448 76.9887C203.623 75.9279 203.201 74.4882 203.317 73.1525C203.412 72.0589 203.705 71.1064 204.207 70.3907C204.693 69.6991 205.412 69.1738 206.497 68.9568ZM213.651 72.8951C213.38 71.2024 212.504 69.5353 211.205 68.3697C209.889 67.1898 208.101 66.4996 206.09 66.9013C204.481 67.223 203.296 68.0498 202.5 69.1832C201.721 70.2922 201.353 71.6366 201.236 72.9701C201.074 74.8322 201.65 76.7976 202.8 78.2775C203.966 79.7774 205.76 80.8151 207.975 80.6548C212.181 80.3502 214.2 76.3212 213.651 72.8951ZM229.233 13.5204C230.969 13.3988 230.969 13.3977 230.969 13.3977L230.969 13.3961L230.968 13.3913L230.967 13.3756C230.966 13.3625 230.965 13.344 230.963 13.3205C230.96 13.2734 230.954 13.2061 230.947 13.1203C230.932 12.9487 230.909 12.7032 230.876 12.3992C230.811 11.7921 230.706 10.9463 230.547 9.98682C230.236 8.10801 229.694 5.6372 228.756 3.68189C228.289 2.70824 227.658 1.71757 226.782 1.01741C225.842 0.266682 224.64 -0.125284 223.28 0.173228C222.019 0.449886 220.839 1.27386 219.714 2.45019C218.574 3.64319 217.365 5.33045 216.065 7.57951C210.823 16.6485 208.273 30.1075 207.008 41.0883C206.372 46.6182 206.053 51.5942 205.894 55.188C205.815 56.9858 205.775 58.4395 205.755 59.4461C205.745 59.9495 205.74 60.341 205.737 60.6082C205.736 60.742 205.736 60.8443 205.735 60.9138V60.9533L205.735 60.9938V61.0148V61.0207V61.0225C205.735 61.0225 205.735 61.0232 207.476 61.0232L205.735 61.0225L209.057 61.7525L230.814 14.2496L231 13.8441L230.969 13.3988L229.233 13.5204ZM227.459 13.21L209.526 52.3633C209.71 49.2596 210.002 45.5225 210.467 41.489C211.726 30.552 214.224 17.7272 219.076 9.33194C220.3 7.21489 221.349 5.78589 222.226 4.86817C223.12 3.93376 223.718 3.65259 224.024 3.58542C224.23 3.54008 224.383 3.56561 224.613 3.74951C224.906 3.98395 225.259 4.44501 225.619 5.19594C226.335 6.68987 226.815 8.75974 227.113 10.5594C227.259 11.4391 227.355 12.217 227.415 12.7737C227.433 12.9406 227.447 13.0871 227.459 13.21Z" fill="#3C3C3C"/>
</svg>
